<svg width="29" height="33" viewBox="0 0 29 33" fill="none" xmlns="http://www.w3.org/2000/svg">
<path d="M0.901049 18.0879H0.75V18.2396C0.75632 21.8236 2.17822 25.2585 4.70336 27.7898C7.22849 30.321 10.6503 31.7416 14.2172 31.7395H14.3603V31.5957C14.3593 29.8208 14.0103 28.0634 13.3333 26.424C12.6564 24.7846 11.6647 23.2952 10.4149 22.0409C9.16507 20.7866 7.68163 19.7919 6.04924 19.1136C4.41686 18.4354 2.6675 18.0868 0.901049 18.0879ZM27.8752 18.0799C24.3104 18.0841 20.8931 19.51 18.374 22.0442C15.8548 24.5785 14.4398 28.0139 14.4398 31.5957V31.7395H14.5829C18.149 31.7353 21.5675 30.3083 24.0869 27.7723C26.6063 25.2364 28.0204 21.7989 28.0183 18.2157V18.0799H27.8752ZM18.0491 17.7603C18.057 17.63 18.057 17.4993 18.0491 17.3689C18.2894 17.5775 18.5568 17.7521 18.8441 17.8882C19.2843 18.1176 19.766 18.2557 20.2604 18.2943C20.7548 18.3328 21.2519 18.271 21.7221 18.1125C22.1923 17.954 22.6259 17.7021 22.9972 17.3717C23.3685 17.0413 23.6698 16.6393 23.8832 16.1895C24.0966 15.7397 24.2178 15.2513 24.2395 14.7535C24.2612 14.2556 24.183 13.7585 24.0095 13.2917C23.836 12.8248 23.5709 12.3979 23.2298 12.0361C22.8887 11.6744 22.4786 11.3853 22.024 11.1862L21.6742 11.0264L22.024 10.8666C22.1869 10.7731 22.3436 10.669 22.4931 10.5551C23.269 9.96296 23.779 9.08536 23.911 8.11537C24.0429 7.14538 23.786 6.16245 23.1967 5.38281C22.6073 4.60318 21.7339 4.0907 20.7686 3.95812C19.8032 3.82554 18.825 4.08372 18.0491 4.67587C18.057 4.54552 18.057 4.4148 18.0491 4.28445C18.005 3.33224 17.5976 2.43368 16.9114 1.77547C16.2252 1.11726 15.313 0.75 14.3643 0.75C13.4156 0.75 12.5034 1.11726 11.8172 1.77547C11.131 2.43368 10.7235 3.33224 10.6795 4.28445C10.6715 4.4148 10.6715 4.54552 10.6795 4.67587C10.4371 4.47005 10.1701 4.29561 9.88448 4.15664C8.99893 3.73293 7.98213 3.68004 7.05777 4.00961C6.13341 4.33918 5.37721 5.02422 4.95552 5.91402C4.53383 6.80382 4.48119 7.8255 4.80919 8.75429C5.13719 9.68309 5.81895 10.4429 6.7045 10.8666L7.0543 11.0264L6.7045 11.1862C6.54172 11.2769 6.38504 11.3783 6.23546 11.4897C5.45955 12.0818 4.94952 12.9594 4.81757 13.9294C4.68563 14.8994 4.94258 15.8824 5.53189 16.662C6.1212 17.4416 6.99461 17.9541 7.95997 18.0867C8.92533 18.2193 9.90356 17.9611 10.6795 17.3689C10.6715 17.4993 10.6715 17.63 10.6795 17.7603C10.7235 18.7126 11.131 19.6111 11.8172 20.2693C12.5034 20.9275 13.4156 21.2948 14.3643 21.2948C15.313 21.2948 16.2252 20.9275 16.9114 20.2693C17.5976 19.6111 18.005 18.7126 18.0491 17.7603ZM14.3603 14.7169C13.6307 14.7169 12.9175 14.4995 12.3109 14.0922C11.7043 13.685 11.2315 13.1061 10.9523 12.4288C10.6731 11.7516 10.6001 11.0063 10.7424 10.2873C10.8847 9.56834 11.2361 8.90791 11.7519 8.38955C12.2678 7.87119 12.9251 7.51818 13.6406 7.37516C14.3562 7.23215 15.0979 7.30555 15.7719 7.58608C16.446 7.86662 17.0221 8.34169 17.4274 8.95121C17.8327 9.56074 18.0491 10.2773 18.0491 11.0104C18.0501 11.4975 17.9554 11.9799 17.7704 12.4301C17.5854 12.8802 17.3137 13.2892 16.971 13.6336C16.6282 13.978 16.2212 14.251 15.7732 14.4369C15.3252 14.6228 14.845 14.7179 14.3603 14.7169Z" stroke="#285E67" stroke-width="1.5" stroke-linecap="round" stroke-linejoin="round"/>
</svg>
