<svg width="44" height="48" viewBox="0 0 44 48" fill="none" xmlns="http://www.w3.org/2000/svg">
<path d="M43.6302 45.5455L41.1092 42.801C41.2796 39.1516 41.5611 21.2665 31.5881 10.4089C22.9583 1.01423 9.27643 0 3.79445 0C2.22528 0 1.28226 0.0810828 1.24313 0.0845185C0.625815 0.138803 0.135371 0.672029 0.0861374 1.34406C0.0230173 2.2023 -1.34038 22.502 9.56994 34.3786C18.1997 43.7733 31.8829 44.7868 37.3649 44.7868C38.2221 44.7868 38.8836 44.7628 39.3222 44.7408L41.8458 47.488C42.092 47.7567 42.4151 47.8907 42.7383 47.8907C43.0615 47.8907 43.3847 47.7567 43.6308 47.488C44.1232 46.9514 44.1232 46.0821 43.6302 45.5455ZM11.3543 32.4354C2.72203 23.038 2.4462 7.23016 2.5535 2.76783C2.89814 2.75683 3.31536 2.74927 3.79445 2.74927C8.96209 2.74927 21.8405 3.68517 29.8031 12.3528C37.4558 20.6838 38.5402 34.0488 38.6134 40.0833L29.2988 29.9438L30.4715 19.001C30.5523 18.2472 30.0562 17.5648 29.3644 17.4769C28.6663 17.3903 28.0452 17.929 27.9644 18.6821L27.0233 27.4659L20.6463 20.5244L19.6603 12.4009C19.5688 11.6485 18.9313 11.1167 18.2433 11.2184C17.5521 11.318 17.0655 12.0086 17.157 12.761L17.7112 17.3298L10.3166 9.27923C9.82431 8.74257 9.02395 8.74257 8.53161 9.27923C8.03864 9.81589 8.03864 10.6858 8.53161 11.2225L15.9255 19.2717L11.7299 18.6684C11.0387 18.5695 10.4038 19.0986 10.3129 19.851C10.2213 20.6034 10.708 21.294 11.3992 21.3936L18.86 22.4669L25.237 29.4085L17.169 30.433C16.4765 30.521 15.981 31.2033 16.0618 31.9571C16.137 32.6573 16.6823 33.1727 17.3141 33.1727C17.3627 33.1727 17.412 33.1699 17.4618 33.1631L27.5131 31.887L36.8359 42.0362C31.3647 41.9696 19.0582 40.822 11.3543 32.4354Z" fill="white"/>
</svg>
