<svg width="82" height="82" viewBox="0 0 82 82" fill="none" xmlns="http://www.w3.org/2000/svg">
<path d="M67.1975 21.0897C67.184 20.8684 67.0899 20.6597 66.9329 20.5031C66.7759 20.3465 66.5669 20.2529 66.3456 20.2401C54.9608 19.5604 45.8553 22.9815 41.9856 29.3683C39.3484 33.7228 39.4549 38.8658 42.2665 43.9158C40.2823 46.0955 38.9721 48.8033 38.4943 51.7119L33.1723 46.3899C35.1276 42.7649 35.1683 39.0651 33.2675 35.925C30.4536 31.2782 23.8606 28.7951 15.6251 29.2776C15.4049 29.2915 15.1973 29.3853 15.0414 29.5413C14.8854 29.6973 14.7916 29.9048 14.7777 30.125C14.2951 38.356 16.7783 44.949 21.4251 47.7629C22.9164 48.6784 24.6323 49.1631 26.3822 49.163C28.3139 49.1302 30.2069 48.6162 31.89 47.6677L38.2813 54.0658V60.9375C38.2813 61.1778 38.3768 61.4083 38.5467 61.5783C38.7167 61.7482 38.9472 61.8437 39.1876 61.8437C39.4279 61.8437 39.6584 61.7482 39.8284 61.5783C39.9983 61.4083 40.0938 61.1778 40.0938 60.9375V54.2561C40.0853 50.9104 41.3198 47.6807 43.5579 45.1936C46.1612 46.6346 48.7847 47.3596 51.3154 47.3596C53.6994 47.36 56.037 46.7005 58.0693 45.4542C64.4538 41.5822 67.8681 32.4767 67.1975 21.0897ZM22.363 46.2109C18.4503 43.8456 16.3047 38.211 16.5494 31.0494C23.7111 30.8047 29.3457 32.9502 31.711 36.8629C33.1791 39.2894 33.204 42.1577 31.8152 45.0396L25.3265 38.5463C25.1541 38.3901 24.9282 38.3062 24.6957 38.3119C24.4631 38.3176 24.2416 38.4126 24.0771 38.5771C23.9127 38.7416 23.8177 38.963 23.812 39.1956C23.8063 39.4281 23.8902 39.654 24.0464 39.8264L30.5419 46.3219C27.6578 47.7108 24.7895 47.6858 22.363 46.2109ZM57.129 43.9C53.4927 46.1022 49.179 46.0727 44.8765 43.8433L57.9537 30.7639C58.1167 30.5927 58.2063 30.3646 58.2035 30.1283C58.2007 29.892 58.1056 29.6661 57.9387 29.4988C57.7717 29.3316 57.546 29.2362 57.3097 29.2329C57.0734 29.2297 56.8451 29.3189 56.6737 29.4815L43.5942 42.561C41.3648 38.2563 41.3286 33.9516 43.5376 30.3085C46.9609 24.6444 55.1104 21.579 65.4303 22.0072C65.8608 32.3272 62.784 40.4766 57.129 43.9Z" fill="black"/>
<circle cx="41" cy="41" r="40" stroke="black" stroke-width="2"/>
</svg>
